HIERARCHY
ROOT pelvis
{
  OFFSET 0 100 0
  CHANNELS 6 Xposition Yposition Zposition Zrotation Xrotation Yrotation
  JOINT pelvis_right_femur
  {
    OFFSET -10.78128 -3.44521 -0.5502486
    CHANNELS 3 Zrotation Xrotation Yrotation
    JOINT right_femur_tibia
    {
      OFFSET -0.8047443 -44.0398 -0.1307829
      CHANNELS 3 Zrotation Xrotation Yrotation
      JOINT right_tibia_foot
      {
        OFFSET 3.006224 -47.83518 -5
        CHANNELS 3 Zrotation Xrotation Yrotation
        End Site
        {
          OFFSET 0 -5 15
        }
      }
    }
  }
  JOINT pelvis_left_femur
  {
    OFFSET 10.78128 -3.44521 -0.5502486
    CHANNELS 3 Zrotation Xrotation Yrotation
    JOINT left_femur_tibia
    {
      OFFSET 0.8047443 -44.0398 -0.1307829
      CHANNELS 3 Zrotation Xrotation Yrotation
      JOINT left_tibia_foot
      {
        OFFSET -4.370144 -48.10324 -4.275266
        CHANNELS 3 Zrotation Xrotation Yrotation
        End Site
        {
          OFFSET 0 -5 15
        }
      }
    }
  }
  JOINT pelvis_spine1
  {
    OFFSET 0 6.468898 -3.129235
    CHANNELS 3 Zrotation Xrotation Yrotation
    JOINT spine1
    {
      OFFSET 0 23.15396 4.99043
      CHANNELS 3 Zrotation Xrotation Yrotation
      JOINT spine2
      {
        OFFSET 0 20.79997 -5.064912
        CHANNELS 3 Zrotation Xrotation Yrotation
        JOINT neck
        {
          OFFSET 0 14.38658 9.616178
          CHANNELS 3 Zrotation Xrotation Yrotation
          End Site
          {
            OFFSET 0 20 0
          }
        }
      }
      JOINT right_manubrium
      {
        OFFSET -5.722621 16.35077 3.967754
        CHANNELS 3 Zrotation Xrotation Yrotation
        JOINT right_clavicle
        {
          OFFSET -13.16364 1.694482 -4.693211
          CHANNELS 3 Zrotation Xrotation Yrotation
          JOINT right_humerus
          {
            OFFSET -28.5034 -0.3100689 -2.792744
            CHANNELS 3 Zrotation Xrotation Yrotation
            JOINT right_radius
            {
              OFFSET -25.15693 0.02248979 -1.271978
              CHANNELS 3 Zrotation Xrotation Yrotation
              End Site
              {
                OFFSET -15 0 0
              }
            }
          }
        }
      }
      JOINT left_manubrium
      {
        OFFSET 5.722621 16.35077 3.967754
        CHANNELS 3 Zrotation Xrotation Yrotation
        JOINT left_clavicle
        {
          OFFSET 13.16364 1.694482 -4.693211
          CHANNELS 3 Zrotation Xrotation Yrotation
          JOINT left_humerus
          {
            OFFSET 29.39168 -1.063119 -2.237045
            CHANNELS 3 Zrotation Xrotation Yrotation
            JOINT left_radius
            {
              OFFSET 24.59957 -0.9528479 0.9047498
              CHANNELS 3 Zrotation Xrotation Yrotation
              End Site
              {
                OFFSET 15 -0 -0
              }
            }
          }
        }
      }
    }
  }
}
MOTION
Frames: 7
Frame Time: 0.0416666666667
0 103.5113 0 -0.3186651 -0.6350475 0.07952645 5.304996 -20.90651 9.592004 -0 38.81713 -0 -8.187226 -13.12977 -3.339155 -6.040889 10.60019 -22.33429 -0 7.054448 -0 10.37446 -16.37417 26.70172 -2.743417 -2.834892 4.041737 2.52642 9.709181 -7.443517 1.872604 22.25749 6.220332 2.647692 -25.63383 9.878609 5.285547 -20.08353 11.38893 86.38174 34.17474 -18.13109 -0 0 15.48635 -6.497386 7.881924 4.021028 5.78332 -19.72886 -1.651594 -93.80103 24.95373 21.96952 0 0 -13.84337 12.12006 17.86047 0.9471251
0.19907 103.4001 1.98029 -0.5037442 -0.5190283 0.1754416 5.589215 -22.00422 9.223669 -0 37.53863 -0 -8.267435 -11.91833 -3.27132 -5.803531 11.03697 -21.76068 -0 7.393056 -0 9.569727 -17.16371 26.06117 -2.695915 -2.656858 3.819205 2.640259 9.685368 -7.576839 1.846547 22.12843 6.296854 2.774119 -25.64756 9.793764 5.222108 -19.8274 11.41555 86.48228 33.76941 -18.39858 -0 0 15.1276 -7.004143 8.067592 4.158467 5.938585 -19.97869 -1.694364 -93.72306 24.97621 21.66106 0 0 -14.01498 11.70812 17.96565 1.200962
0.4354505 103.1241 4.33505 -0.4968552 1.122811 0.2694731 6.190605 -25.47645 8.991754 -0 31.06966 -0 -7.074018 -11.69506 -2.729896 -6.068896 11.8078 -21.10073 -0 7.047011 -0 9.893115 -18.47731 25.72207 -2.99207 -2.63584 4.136574 3.104465 9.528628 -7.952285 1.772426 21.34716 6.615561 3.030494 -26.19121 9.967618 5.533288 -19.4489 11.41172 86.3451 34.99062 -19.38682 -0 0 14.70323 -6.874191 8.44296 4.143938 6.523104 -20.49189 -1.271984 -92.69967 24.23435 20.38522 0 0 -16.70715 12.33838 16.51694 0.304083
0.6884068 102.7168 6.892974 -0.5238424 1.785421 0.366418 6.46048 -27.01057 8.782667 -0 28.34835 -0 -6.652035 -11.15905 -2.471411 -6.148379 12.23441 -20.67025 -0 7.060638 -0 9.824897 -19.09998 25.36077 -3.074572 -2.612955 4.218686 3.284666 9.4947 -8.115594 1.722596 21.00179 6.774633 3.160391 -26.42392 10.01799 5.60373 -19.2672 11.41964 86.42348 35.35253 -19.89733 -0 0 14.40006 -6.963826 8.630144 4.200155 6.779906 -20.783 -1.136256 -92.23063 23.86479 19.81822 0 0 -17.93923 12.53822 15.89486 -0.02119338
0.9555553 102.193 9.790094 -0.6152133 2.365378 0.5049627 6.715552 -28.86732 8.177828 -0 25.17907 -0 -6.343869 -9.710045 -2.12257 -6.143249 12.85641 -19.79976 -0 7.390726 -0 9.253797 -19.93567 24.44203 -3.065999 -2.490019 4.179084 3.449849 9.517675 -8.295778 1.626096 20.63466 6.996148 3.336658 -26.62814 10.00539 5.519 -18.99472 11.45776 86.75437 35.27775 -20.59301 -0 0 13.7573 -7.493417 8.889809 4.45221 7.08628 -21.27054 -1.134932 -91.56649 23.32072 18.98742 0 0 -19.46165 12.65494 15.21059 -0.3251758
1.232802 101.5833 12.95966 -0.7149707 2.786209 0.6801015 6.920985 -30.24034 7.68785 -0 22.84673 -0 -6.201859 -8.49771 -1.860729 -6.115147 13.35238 -19.10138 -0 7.819177 -0 8.67803 -20.53962 23.61321 -3.018239 -2.393345 4.118755 3.566619 9.533493 -8.429101 1.54583 20.3635 7.166207 3.47193 -26.78972 9.984501 5.42741 -18.77524 11.48705 87.05565 35.15512 -21.14638 -0 0 13.22287 -7.911539 9.082292 4.647662 7.308655 -21.65018 -1.144144 -91.09136 22.91672 18.38963 0 0 -20.59077 12.69812 14.725 -0.5103565
1.521217 100.8936 16.44697 -0.8274696 3.18482 0.9043571 7.095141 -31.62149 7.061685 -0 20.39353 -0 -6.126444 -7.063041 -1.559924 -6.083308 13.89167 -18.27687 -0 8.456383 -0 7.956512 -21.10493 22.58039 -2.927354 -2.2877 4.035172 3.66718 9.566414 -8.556427 1.446041 20.09567 7.353514 3.610419 -26.94668 9.945638 5.274141 -18.53569 11.52297 87.4675 34.91744 -21.77235 -0 0 12.55723 -8.426536 9.277991 4.89359 7.530851 -22.09061 -1.195449 -90.53686 22.43469 17.7102 0 0 -21.87485 12.75975 14.19302 -0.7236638
